<?xml version="1.0" encoding="UTF-8" standalone="no"?>
<svg
   version="1.1"
   width="388.44629"
   height="449.19598"
   style="clip-rule:evenodd;fill-rule:evenodd;image-rendering:optimizeQuality;shape-rendering:geometricPrecision;text-rendering:geometricPrecision"
   id="svg202"
   xmlns="http://www.w3.org/2000/svg"
   xmlns:svg="http://www.w3.org/2000/svg">
  <path
     style="font-size:33.0668px;-inkscape-font-specification:sans-serif;text-align:center;text-anchor:middle;stroke:#000000;stroke-width:1.55"
     d="m 118.61017,347.64435 h -4.14949 l -8.04066,-9.55837 h -4.50471 v 9.55837 h -3.196884 v -24.04124 h 6.732844 q 2.17969,0 3.63282,0.29062 1.45313,0.27448 2.61564,1.00105 1.30782,0.82344 2.03438,2.08282 0.74271,1.24323 0.74271,3.16459 0,2.59949 -1.30782,4.3594 -1.30781,1.74375 -3.60053,2.63178 z m -7.47555,-17.27611 q 0,-1.03334 -0.37135,-1.82449 -0.35521,-0.80729 -1.1948,-1.35625 -0.69427,-0.46824 -1.64688,-0.64584 -0.95261,-0.19375 -2.24428,-0.19375 h -3.762 v 9.07399 h 3.22918 q 1.51772,0 2.64793,-0.25833 1.13021,-0.27448 1.92136,-1.00105 0.72657,-0.67812 1.06563,-1.55 0.35521,-0.88803 0.35521,-2.24428 z m 24.6225,8.57347 h -13.28808 q 0,1.66303 0.50052,2.90626 0.50053,1.22709 1.37241,2.01824 0.83958,0.775 1.98594,1.1625 1.16251,0.3875 2.55105,0.3875 1.84064,0 3.69741,-0.72656 1.87293,-0.74271 2.66408,-1.45313 h 0.16146 v 3.30991 q -1.53386,0.64583 -3.13231,1.08177 -1.59844,0.43594 -3.35835,0.43594 -4.48855,0 -7.00731,-2.42188 -2.51876,-2.43803 -2.51876,-6.91045 0,-4.42397 2.40573,-7.02346 2.42189,-2.59949 6.36149,-2.59949 3.64897,0 5.61877,2.13126 1.98595,2.13125 1.98595,6.05471 z m -2.9547,-2.32501 q -0.0162,-2.38959 -1.21095,-3.69741 -1.17865,-1.30782 -3.60053,-1.30782 -2.43803,0 -3.89116,1.43699 -1.43699,1.43698 -1.63074,3.56824 z m 22.18446,8.97712 q 0,4.58543 -2.08282,6.73284 -2.08282,2.1474 -6.40992,2.1474 -1.43698,0 -2.80939,-0.20989 -1.35625,-0.19375 -2.68022,-0.56511 v -3.10001 h 0.16146 q 0.74272,0.29062 2.35731,0.71042 1.61458,0.43594 3.22917,0.43594 1.55001,0 2.5672,-0.37136 1.01719,-0.37136 1.5823,-1.03334 0.56511,-0.62969 0.8073,-1.51771 0.24218,-0.88803 0.24218,-1.98595 v -1.64688 q -1.3724,1.09792 -2.63178,1.64688 -1.24323,0.53282 -3.18074,0.53282 -3.22918,0 -5.1344,-2.32501 -1.88907,-2.34116 -1.88907,-6.58753 0,-2.32501 0.64584,-4.00418 0.66198,-1.69532 1.7922,-2.92241 1.04948,-1.14636 2.55105,-1.77605 1.50157,-0.64583 2.98699,-0.64583 1.56615,0 2.61563,0.32292 1.06563,0.30677 2.24428,0.9526 l 0.19375,-0.775 h 2.84168 z m -3.03543,-2.90626 v -9.83285 q -1.21094,-0.54896 -2.26042,-0.77501 -1.03334,-0.24219 -2.06668,-0.24219 -2.50261,0 -3.9396,1.67918 -1.43698,1.67917 -1.43698,4.87606 0,3.03543 1.06563,4.60158 1.06563,1.56615 3.53595,1.56615 1.32396,0 2.64793,-0.50052 1.34011,-0.51667 2.45417,-1.3724 z m 23.96052,4.95679 h -3.03543 v -2.00209 q -1.53386,1.21094 -2.93856,1.85678 -1.40469,0.64583 -3.10001,0.64583 -2.84168,0 -4.42397,-1.72761 -1.5823,-1.74376 -1.5823,-5.1021 v -11.70578 h 3.03543 v 10.26879 q 0,1.3724 0.12916,2.3573 0.12917,0.96876 0.54896,1.66303 0.43594,0.71042 1.13022,1.03334 0.69427,0.32292 2.01823,0.32292 1.17865,0 2.5672,-0.61355 1.40469,-0.61354 2.61564,-1.56615 v -13.46568 h 3.03543 z m 9.04169,0 h -3.03542 v -25.12302 h 3.03542 z m 20.02092,0 h -3.01928 v -1.92136 q -0.40365,0.27448 -1.09792,0.775 -0.67813,0.48438 -1.32397,0.775 -0.75885,0.37136 -1.74375,0.61355 -0.9849,0.25833 -2.30887,0.25833 -2.43803,0 -4.13335,-1.61459 -1.69532,-1.61459 -1.69532,-4.1172 0,-2.05053 0.87188,-3.30991 0.88803,-1.27553 2.51876,-2.00209 1.64688,-0.72657 3.95575,-0.9849 2.30886,-0.25834 4.95679,-0.3875 v -0.46824 q 0,-1.03333 -0.37136,-1.71146 -0.35521,-0.67813 -1.03334,-1.06563 -0.64583,-0.37136 -1.55,-0.50052 -0.90417,-0.12917 -1.88907,-0.12917 -1.1948,0 -2.66407,0.32292 -1.46928,0.30677 -3.03543,0.90417 h -0.16146 v -3.08387 q 0.88802,-0.24219 2.5672,-0.53281 1.67917,-0.29063 3.3099,-0.29063 1.90522,0 3.30991,0.32292 1.42084,0.30677 2.45418,1.06563 1.01719,0.74271 1.55001,1.92136 0.53281,1.17865 0.53281,2.92241 z m -3.01928,-4.44012 v -5.02138 q -1.38855,0.0807 -3.27762,0.24219 -1.87292,0.16146 -2.97084,0.46823 -1.30782,0.37136 -2.11512,1.16251 -0.80729,0.775 -0.80729,2.1474 0,1.55001 0.93646,2.34116 0.93646,0.775 2.85782,0.775 1.59845,0 2.92241,-0.61355 1.32396,-0.62969 2.45418,-1.50156 z m 18.22871,4.27866 q -0.85573,0.22604 -1.87292,0.37135 -1.00105,0.14532 -1.7922,0.14532 -2.76094,0 -4.19793,-1.48542 -1.43698,-1.48543 -1.43698,-4.76304 v -9.59067 h -2.05053 v -2.55105 h 2.05053 v -5.18283 h 3.03542 v 5.18283 h 6.26461 v 2.55105 h -6.26461 v 8.21826 q 0,1.42084 0.0646,2.22814 0.0646,0.79115 0.45208,1.48542 0.35521,0.64584 0.96876,0.95261 0.62969,0.29062 1.90521,0.29062 0.74271,0 1.55001,-0.20989 0.80729,-0.22604 1.1625,-0.37136 h 0.16146 z m 19.03602,-8.84795 q 0,4.40783 -2.26043,6.95888 -2.26042,2.55105 -6.05471,2.55105 -3.82658,0 -6.087,-2.55105 -2.24428,-2.55105 -2.24428,-6.95888 0,-4.40783 2.24428,-6.95889 2.26042,-2.56719 6.087,-2.56719 3.79429,0 6.05471,2.56719 2.26043,2.55106 2.26043,6.95889 z m -3.13231,0 q 0,-3.50366 -1.3724,-5.19898 -1.3724,-1.71147 -3.81043,-1.71147 -2.47032,0 -3.84272,1.71147 -1.35626,1.69532 -1.35626,5.19898 0,3.39064 1.3724,5.15054 1.3724,1.74376 3.82658,1.74376 2.42188,0 3.79429,-1.72762 1.38854,-1.74375 1.38854,-5.16668 z m 19.08445,-5.71565 h -0.16146 q -0.67812,-0.16146 -1.32396,-0.22604 -0.62969,-0.0807 -1.50157,-0.0807 -1.40469,0 -2.71251,0.62969 -1.30782,0.61354 -2.51876,1.59844 v 12.8037 h -3.03543 v -18.03497 h 3.03543 v 2.66407 q 1.80834,-1.45313 3.18074,-2.05053 1.38855,-0.61354 2.82554,-0.61354 0.79114,0 1.14635,0.0484 0.35521,0.0323 1.06563,0.14531 z"
     id="text208"
     aria-label="Regulator" />
  <defs
     id="defs202" />
  <g
     id="g208"
     transform="translate(-7.7856779,-2.3808376)">
    <ellipse
       style="fill:#000000;fill-opacity:0;stroke:#000000;stroke-width:10.2212;stroke-dasharray:none;stroke-opacity:1"
       id="path204"
       cx="184.45818"
       cy="337.79565"
       rx="106.70142"
       ry="108.67058" />
    <rect
       style="fill:#000000;fill-opacity:0;stroke:#000000;stroke-width:10;stroke-dasharray:none;stroke-opacity:1"
       id="rect206"
       width="71.629486"
       height="89.536858"
       x="319.60248"
       y="311.92142"
       ry="0.19180529" />
    <rect
       style="fill:#000000;fill-opacity:0.958549;stroke:#000000;stroke-width:10;stroke-dasharray:none;stroke-opacity:1"
       id="rect207"
       width="32.483139"
       height="37.480545"
       x="288.36871"
       y="333.1604"
       ry="0.19180529" />
    <rect
       style="fill:#000000;fill-opacity:0.0310881;stroke:#000000;stroke-width:10;stroke-dasharray:none;stroke-opacity:1"
       id="rect208"
       width="65.704178"
       height="47.946301"
       x="12.785678"
       y="329.94153"
       ry="0.19180816" />
    <path
       style="fill:#000000;fill-opacity:0.0310881;stroke:#000000;stroke-width:10;stroke-dasharray:none;stroke-opacity:1"
       d="m 90.137862,269.67475 -0.738835,-60.58446 22.165053,-8.86602 2.2165,-30.29223 14.7767,-8.86602 -2.21651,-12.5602 -5.17184,-8.86602 -3.69417,-119.691257 2.2165,-1.47767 7.38835,-5.910679 6.64951,-2.216505 4.43301,-0.7388348 h 4.43301 l 7.38835,-0.7388349 h 8.86602 l 5.91068,-1.4776699 60.58447,0.7388349 3.69417,1.4776699 16.9932,4.4330098 0.73884,1.47767 2.2165,4.433009 -1.47767,128.557277 -5.17184,2.21651 v 5.91068 l 2.2165,3.69417 4.43301,2.21651 h 4.43301 l 3.69418,2.95534 2.95534,10.34369 v 12.56019 l 0.73883,4.43301 3.69418,5.17184 16.9932,3.69418 2.21651,1.47767 2.2165,28.07573 -4.43301,-0.73884 -3.69417,-1.47767 1.47767,46.5466 -18.47088,-19.20971 -40.63592,-22.90388 -37.68058,-3.69417 -34.72524,6.64951 -28.81457,15.51553 z"
       id="path208" />
  </g>
</svg>
