<?xml version="1.0" encoding="UTF-8" standalone="no"?>
<svg
   id="Layer_1"
   version="1.1"
   viewBox="0 0 334.11054 132.89316"
   width="334.11053"
   height="132.89316"
   xmlns="http://www.w3.org/2000/svg"
   xmlns:svg="http://www.w3.org/2000/svg">
  <!-- Generator: Adobe Illustrator 30.3.0, SVG Export Plug-In . SVG Version: 2.1.3 Build 182)  -->
  <defs
     id="defs1">
    <style
       id="style1">
      .st0 {
        fill: #ddd6d3;
      }

      .st1 {
        fill: #c1baae;
      }

      .st2 {
        fill: #7b776c;
      }

      .st3 {
        fill: none;
        stroke: #c1baae;
        stroke-miterlimit: 10;
        stroke-width: .3px;
      }

      .st4 {
        fill: #808083;
      }

      .st5 {
        fill: #cfd2d3;
      }

      .st6 {
        fill: #e8e2d0;
      }

      .st7 {
        fill: #dfd6c8;
      }

      .st8 {
        fill: #b2a696;
      }
    </style>
  </defs>
  <g
     id="Main_Layer"
     transform="translate(-0.36046473,0.31926916)">
    <g
       id="g18"
       transform="translate(1.3410354,-0.23732458)">
      <rect
         style="fill:#000000;fill-opacity:0;stroke:#000000;stroke-width:3.93901"
         id="rect13"
         width="264.36868"
         height="128.95415"
         x="34.110851"
         y="1.8875604"
         ry="0" />
      <rect
         style="fill:#000000;fill-opacity:0;stroke:#000000;stroke-width:4"
         id="rect14"
         width="11.508318"
         height="95.135422"
         x="298.83264"
         y="32.990509"
         ry="0.19180529" />
      <rect
         style="fill:#000000;fill-opacity:0;stroke:#000000;stroke-width:4"
         id="rect15"
         width="20.714972"
         height="30.688847"
         x="310.41498"
         y="36.942146"
         ry="0.19180529" />
      <rect
         style="fill:#000000;fill-opacity:0;stroke:#000000;stroke-width:4"
         id="rect15-5"
         width="20.714972"
         height="30.688847"
         x="1.0194293"
         y="36.640068"
         ry="0.19180529" />
      <rect
         style="fill:#000000;fill-opacity:0;stroke:#000000;stroke-width:2.84772"
         id="rect15-5-3"
         width="21.137682"
         height="15.243397"
         x="0.73899555"
         y="36.662895"
         ry="0.095271222" />
      <rect
         style="fill:#000000;fill-opacity:0;stroke:#000000;stroke-width:2.93432"
         id="rect15-5-3-1"
         width="21.051085"
         height="16.251156"
         x="0.48658797"
         y="51.856995"
         ry="0.10156971" />
      <rect
         style="fill:#000000;fill-opacity:0;stroke:#000000;stroke-width:2.84772"
         id="rect15-5-3-9"
         width="21.137682"
         height="15.243397"
         x="310.1507"
         y="36.715775"
         ry="0.095271222" />
      <rect
         style="fill:#000000;fill-opacity:0;stroke:#000000;stroke-width:2.93432"
         id="rect15-5-3-1-5"
         width="21.051085"
         height="16.251156"
         x="309.89828"
         y="51.909874"
         ry="0.10156971" />
      <rect
         style="fill:#000000;fill-opacity:0;stroke:#000000;stroke-width:4"
         id="rect16"
         width="11.891928"
         height="94.368202"
         x="21.865803"
         y="33.374123"
         ry="0.19180529" />
      <g
         id="text16"
         style="font-size:33.7874px;-inkscape-font-specification:sans-serif;stroke:#000000;stroke-width:1.58374"
         aria-label="Double&#10;Solenoid">
        <path
           style="text-align:center;text-anchor:middle"
           d="m 130.33913,42.342946 q 0,3.349044 -1.4683,6.071173 -1.4518,2.722129 -3.87697,4.223425 -1.68277,1.039358 -3.76149,1.501296 -2.06222,0.461937 -5.44425,0.461937 h -6.20316 V 30.035622 h 6.13716 q 3.59651,0 5.70823,0.527928 2.12821,0.51143 3.59651,1.418807 2.50766,1.567286 3.90996,4.173931 1.40231,2.606645 1.40231,6.186658 z m -3.41503,-0.04949 q 0,-2.887107 -1.00636,-4.866838 -1.00637,-1.97973 -3.0026,-3.118075 -1.4518,-0.824888 -3.08508,-1.138345 -1.63327,-0.329955 -3.90996,-0.329955 h -3.06859 v 18.955919 h 3.06859 q 2.35918,0 4.10794,-0.346453 1.76526,-0.346453 3.23356,-1.286825 1.83125,-1.171341 2.73862,-3.08508 0.92388,-1.913739 0.92388,-4.784348 z m 24.15271,3.101577 q 0,4.503887 -2.30969,7.110532 -2.30968,2.606645 -6.18665,2.606645 -3.90997,0 -6.21966,-2.606645 -2.29318,-2.606645 -2.29318,-7.110532 0,-4.503887 2.29318,-7.110532 2.30969,-2.623142 6.21966,-2.623142 3.87697,0 6.18665,2.623142 2.30969,2.606645 2.30969,7.110532 z m -3.20056,0 q 0,-3.580012 -1.40231,-5.312276 -1.40231,-1.748762 -3.89347,-1.748762 -2.52416,0 -3.92647,1.748762 -1.38581,1.732264 -1.38581,5.312276 0,3.464528 1.40231,5.262784 1.40231,1.781757 3.90997,1.781757 2.47466,0 3.87697,-1.76526 1.41881,-1.781757 1.41881,-5.279281 z m 23.27832,9.205747 H 168.053 v -2.045722 q -1.56729,1.237332 -3.00259,1.897242 -1.43531,0.65991 -3.16757,0.65991 -2.90361,0 -4.52039,-1.76526 -1.61678,-1.781757 -1.61678,-5.21329 V 36.172786 h 3.10158 v 10.492571 q 0,1.402309 0.13198,2.408672 0.13198,0.989865 0.56093,1.699269 0.44544,0.725901 1.15484,1.055856 0.7094,0.329955 2.06222,0.329955 1.20433,0 2.62314,-0.626914 1.43531,-0.626915 2.67264,-1.600283 V 36.172786 h 3.10157 z m 22.32146,-9.354227 q 0,2.309686 -0.65991,4.157434 -0.64341,1.847749 -1.74876,3.101578 -1.17134,1.303323 -2.57365,1.963233 -1.40231,0.643412 -3.08508,0.643412 -1.56728,0 -2.73862,-0.379448 -1.17134,-0.362951 -2.30969,-0.989866 l -0.19797,0.857884 h -2.90361 V 28.930272 h 3.10158 v 9.172751 q 1.30332,-1.072354 2.77162,-1.748762 1.4683,-0.692905 3.29955,-0.692905 3.26656,0 5.1473,2.507658 1.89724,2.507659 1.89724,7.077536 z m -3.20056,0.08249 q 0,-3.299551 -1.08885,-4.998819 -1.08885,-1.715767 -3.51402,-1.715767 -1.35282,0 -2.73863,0.59392 -1.38581,0.577421 -2.57365,1.501295 V 51.26823 q 1.31982,0.59392 2.26019,0.824888 0.95687,0.230969 2.16121,0.230969 2.57365,0 4.02545,-1.682771 1.4683,-1.699269 1.4683,-5.312277 z m 11.16898,9.271738 h -3.10158 V 28.930272 h 3.10158 z m 21.56257,-8.892289 h -13.57765 q 0,1.699268 0.51143,2.969595 0.51143,1.253829 1.40231,2.062219 0.85788,0.791893 2.02922,1.187839 1.18784,0.395946 2.60665,0.395946 1.88074,0 3.77798,-0.742399 1.91374,-0.758897 2.72213,-1.484798 h 0.16498 v 3.382039 q -1.56729,0.659911 -3.20057,1.10535 -1.63327,0.445439 -3.43153,0.445439 -4.58637,0 -7.16002,-2.474663 -2.57365,-2.491161 -2.57365,-7.061038 0,-4.520385 2.45816,-7.176523 2.47466,-2.656138 6.50012,-2.656138 3.72849,0 5.74121,2.177703 2.02923,2.177704 2.02923,6.186658 z m -3.01909,-2.375677 q -0.0165,-2.441668 -1.23733,-3.777986 -1.20434,-1.336318 -3.679,-1.336318 -2.49116,0 -3.97596,1.4683 -1.4683,1.468301 -1.66627,3.646004 z"
           id="path17" />
        <path
           style="text-align:center;text-anchor:middle"
           d="m 114.01461,89.823481 q 0,1.435304 -0.67641,2.837613 -0.65991,1.402309 -1.86425,2.375677 -1.31982,1.055856 -3.08508,1.649775 -1.74876,0.593919 -4.22342,0.593919 -2.65614,0 -4.784351,-0.494932 Q 97.269387,96.2906 95.075185,95.317232 V 91.22579 h 0.230969 q 1.864246,1.550788 4.305914,2.392174 2.441672,0.841385 4.586372,0.841385 3.03559,0 4.71836,-1.138345 1.69927,-1.138345 1.69927,-3.035586 0,-1.633278 -0.80839,-2.408672 -0.79189,-0.775395 -2.42517,-1.204336 -1.23733,-0.329955 -2.68913,-0.544426 -1.43531,-0.214471 -3.05209,-0.544426 -3.266554,-0.692906 -4.850338,-2.359179 -1.567287,-1.682771 -1.567287,-4.371905 0,-3.08508 2.606645,-5.048312 2.60665,-1.979731 6.6156,-1.979731 2.59015,0 4.75135,0.494933 2.16121,0.494933 3.82748,1.220834 v 3.860474 h -0.23097 q -1.40231,-1.187838 -3.69549,-1.963233 -2.27669,-0.791892 -4.66887,-0.791892 -2.62314,0 -4.22342,1.088852 -1.583788,1.088852 -1.583788,2.804618 0,1.534291 0.791893,2.408672 0.791895,0.874381 2.788115,1.336318 1.05586,0.230969 3.0026,0.560924 1.94673,0.329955 3.29955,0.676408 2.73862,0.725901 4.12444,2.194201 1.38581,1.4683 1.38581,4.107941 z m 20.70468,-2.194202 q 0,4.503887 -2.30969,7.110532 -2.30968,2.606645 -6.18666,2.606645 -3.90996,0 -6.21965,-2.606645 -2.29319,-2.606645 -2.29319,-7.110532 0,-4.503886 2.29319,-7.110531 2.30969,-2.623143 6.21965,-2.623143 3.87698,0 6.18666,2.623143 2.30969,2.606645 2.30969,7.110531 z m -3.20057,0 q 0,-3.580012 -1.40231,-5.312276 -1.4023,-1.748762 -3.89347,-1.748762 -2.52415,0 -3.92646,1.748762 -1.38581,1.732264 -1.38581,5.312276 0,3.464529 1.40231,5.262784 1.40231,1.781757 3.90996,1.781757 2.47467,0 3.87698,-1.76526 1.4188,-1.781757 1.4188,-5.279281 z m 11.13599,9.205747 h -3.10158 V 71.164521 h 3.10158 z m 21.56256,-8.892289 h -13.57765 q 0,1.699268 0.51143,2.969595 0.51143,1.25383 1.40231,2.062219 0.85788,0.791893 2.02922,1.187839 1.18784,0.395946 2.60665,0.395946 1.88074,0 3.77798,-0.742399 1.91374,-0.758897 2.72213,-1.484798 h 0.16498 v 3.38204 q -1.56729,0.65991 -3.20056,1.105349 -1.63328,0.445439 -3.43154,0.445439 -4.58637,0 -7.16002,-2.474663 -2.57365,-2.49116 -2.57365,-7.061038 0,-4.520385 2.45816,-7.176523 2.47467,-2.656138 6.50012,-2.656138 3.72849,0 5.74122,2.177703 2.02922,2.177704 2.02922,6.186658 z m -3.01909,-2.375677 q -0.0165,-2.441667 -1.23733,-3.777985 -1.20433,-1.336318 -3.679,-1.336318 -2.49116,0 -3.97596,1.4683 -1.4683,1.4683 -1.66627,3.646003 z m 23.12986,11.267966 h -3.10158 V 86.342455 q 0,-1.270328 -0.14848,-2.375677 -0.14848,-1.121847 -0.54443,-1.748762 -0.41244,-0.692906 -1.18784,-1.022861 -0.77539,-0.346452 -2.01272,-0.346452 -1.27033,0 -2.65614,0.626914 -1.38581,0.626915 -2.65614,1.600282 v 13.759127 h -3.10158 V 78.407035 h 3.10158 v 2.045722 q 1.4518,-1.204337 3.00259,-1.880744 1.55079,-0.676408 3.18407,-0.676408 2.98609,0 4.55338,1.798255 1.56729,1.798255 1.56729,5.180294 z m 21.67804,-9.205747 q 0,4.503887 -2.30968,7.110532 -2.30969,2.606645 -6.18666,2.606645 -3.90997,0 -6.21965,-2.606645 -2.29319,-2.606645 -2.29319,-7.110532 0,-4.503886 2.29319,-7.110531 2.30968,-2.623143 6.21965,-2.623143 3.87697,0 6.18666,2.623143 2.30968,2.606645 2.30968,7.110531 z m -3.20056,0 q 0,-3.580012 -1.40231,-5.312276 -1.40231,-1.748762 -3.89347,-1.748762 -2.52416,0 -3.92646,1.748762 -1.38582,1.732264 -1.38582,5.312276 0,3.464529 1.40231,5.262784 1.40231,1.781757 3.90997,1.781757 2.47466,0 3.87697,-1.76526 1.41881,-1.781757 1.41881,-5.279281 z m 11.33396,-12.307324 h -3.49753 v -3.217062 h 3.49753 z m -0.19798,21.513071 h -3.10158 V 78.407035 h 3.10158 z m 21.08413,0 h -3.10158 v -1.930237 q -1.33632,1.154842 -2.78812,1.798255 -1.4518,0.643412 -3.15107,0.643412 -3.29955,0 -5.24628,-2.540654 -1.93024,-2.540654 -1.93024,-7.044541 0,-2.342681 0.65991,-4.173931 0.67641,-1.831251 1.81475,-3.118076 1.12185,-1.253829 2.60665,-1.913739 1.50129,-0.65991 3.10157,-0.65991 1.45181,0 2.57365,0.313457 1.12185,0.29696 2.35918,0.940372 v -7.984913 h 3.10158 z m -3.10158,-4.536882 v -10.57506 q -1.25383,-0.560924 -2.24369,-0.775395 -0.98987,-0.214471 -2.16121,-0.214471 -2.60664,0 -4.05845,1.814753 -1.4518,1.814753 -1.4518,5.147299 0,3.283053 1.12185,4.99882 1.12185,1.699268 3.59651,1.699268 1.31982,0 2.67264,-0.577421 1.35281,-0.593919 2.52415,-1.517793 z"
           id="path18" />
      </g>
    </g>
  </g>
</svg>
