<?xml version="1.0" encoding="UTF-8" standalone="no"?>
<!-- Created with Inkscape (http://www.inkscape.org/) -->

<svg
   height="1.9143479mm"
   viewBox="0 0 12.206803 1.9143479"
   gorn="0"
   version="1.1"
   width="12.206802mm"
   id="svg5"
   xmlns="http://www.w3.org/2000/svg"
   xmlns:svg="http://www.w3.org/2000/svg">
  <desc
     id="desc1">
    <referenceFile>rev_pdh_1_breadboard.svg</referenceFile>
  </desc>
  <defs
     id="defs2" />
  <g
     transform="translate(-86.146408,-46.255246)"
     id="g19360">
    <g
       id="g19359">
      <g
         id="g19358">
        <rect
           style="fill:#ffff00;fill-opacity:0;stroke:#000000;stroke-width:0.2;stroke-dasharray:none"
           id="rect19362"
           width="12.206802"
           height="1.8590504"
           x="86.146408"
           y="46.310543"
           ry="0.37673855" />
        <path
           d="m 92.447757,47.399409 q 0,0.07166 -0.02618,0.137115 -0.02618,0.06546 -0.07166,0.110243 -0.04961,0.04823 -0.118511,0.07441 -0.06821,0.02549 -0.158474,0.02549 -0.08406,0 -0.16192,-0.01792 -0.07786,-0.01723 -0.131602,-0.04203 v -0.145383 h 0.0096 q 0.0565,0.03583 0.132292,0.06132 0.07579,0.0248 0.148828,0.0248 0.04892,0 0.09439,-0.01378 0.04616,-0.01378 0.08199,-0.04823 0.03032,-0.02963 0.04548,-0.07097 0.01585,-0.04134 0.01585,-0.09577 0,-0.05305 -0.0186,-0.08957 -0.01792,-0.03652 -0.0503,-0.05857 -0.03583,-0.02618 -0.08751,-0.03652 -0.05099,-0.01102 -0.114377,-0.01102 -0.06063,0 -0.117133,0.0083 -0.05581,0.0083 -0.09646,0.01654 v -0.528478 h 0.617361 v 0.120579 h -0.48438 v 0.272851 q 0.02963,-0.0028 0.06063,-0.0041 0.03101,-0.0014 0.05374,-0.0014 0.08337,0 0.146072,0.01447 0.0627,0.01378 0.115066,0.04961 0.05512,0.0379 0.08544,0.09784 0.03032,0.05994 0.03032,0.150206 z"
           id="text19362"
           style="font-size:1.41111px;-inkscape-font-specification:sans-serif;text-align:center;text-anchor:middle;stroke:#000000;stroke-width:0"
           aria-label="5" />
        <rect
           style="fill:#000000;fill-opacity:1;stroke:#000000;stroke-width:0;stroke-dasharray:none"
           id="rect19363"
           width="2.1447308"
           height="0.31982836"
           x="87.827568"
           y="47.070255"
           ry="0" />
        <rect
           style="fill:#000000;fill-opacity:1;stroke:#000000;stroke-width:0;stroke-dasharray:none"
           id="rect19363-3"
           width="2.1447308"
           height="0.31982836"
           x="95.022133"
           y="47.050137"
           ry="0" />
        <rect
           style="fill:none;stroke:#000000;stroke-width:0.750686;stroke-opacity:0"
           id="rect19361"
           width="3.8056762"
           height="0.61045051"
           x="93.68103"
           y="46.630589" />
        <rect
           style="fill:none;stroke:#000000;stroke-width:0.252356;stroke-opacity:0"
           id="rect19360"
           width="4.4025736"
           height="1.0810847"
           x="86.525986"
           y="46.395275"
           ry="0" />
        <g
           id="g19364" />
      </g>
    </g>
  </g>
  <style
     type="text/css"
     id="style10601">
	.st0{fill:#F26D23;}
	.st1{fill:#383839;}
	.st2{fill:#414042;}
	.st3{fill:#434345;}
	.st4{fill:#464547;}
	.st5{fill:#3D3D3E;}
	.st6{fill:#282829;}
	.st7{fill:#292728;}
	.st8{fill:#710E11;}
	.st9{fill:#EB3627;}
	.st10{fill:#4D4D4F;}
	.st11{fill:#E55A20;}
	.st12{fill:#3B3B3C;}
	.st13{fill:#3A393A;}
	.st14{fill:#B32228;}
	.st15{fill:#E0E1E2;}
	.st16{fill:#8D9092;}
	.st17{fill:#EDEDEE;}
	.st18{fill:#D8D9DA;}
	.st19{fill:#E4E5E6;}
	.st20{fill:#8A8C8E;}
	.st21{fill:#333334;}
	.st22{fill:#545456;}
	.st23{fill:#649B40;}
	.st24{fill:#74AD44;}
	.st25{fill:#84C567;}
	.st26{fill:#477133;}
	.st27{fill:#E6CA3A;}
	.st28{fill:#FBD93C;}
	.st29{fill:#FDE855;}
	.st30{fill:#9B7D22;}
	.st31{fill:#EBEBEC;}
	.st32{fill:#2E2E2F;}
	.st33{fill:#4F4F51;}
	.st34{fill:#3D3C3D;}
	.st35{fill:#EF4653;}
	.st36{fill:#59575A;}
	.st37{fill:none;stroke:#000000;stroke-width:0.35;stroke-linecap:round;stroke-linejoin:round;stroke-miterlimit:10;}
	.st38{fill:#FFFFFF;}
	.st39{fill:#FF5100;}
	.st40{fill:none;stroke:#FFFFFF;stroke-width:0.4557;stroke-miterlimit:10;}
	.st41{fill:#414042;stroke:#000000;stroke-width:0.25;stroke-miterlimit:10;}
</style>
</svg>
