<?xml version="1.0" encoding="UTF-8" standalone="no"?>
<!-- Created with Inkscape (http://www.inkscape.org/) -->

<svg
   height="1.9143479mm"
   viewBox="0 0 12.206803 1.9143479"
   gorn="0"
   version="1.1"
   width="12.206802mm"
   id="svg5"
   xmlns="http://www.w3.org/2000/svg"
   xmlns:svg="http://www.w3.org/2000/svg">
  <desc
     id="desc1">
    <referenceFile>rev_pdh_1_breadboard.svg</referenceFile>
  </desc>
  <defs
     id="defs2" />
  <g
     transform="translate(-86.146408,-46.255246)"
     id="g19360">
    <g
       id="g19359">
      <g
         id="g19358">
        <rect
           style="fill:#e900ff;fill-opacity:0;stroke:#000000;stroke-width:0.1;stroke-dasharray:none"
           id="rect19362"
           width="12.206802"
           height="1.8590504"
           x="86.146408"
           y="46.310543"
           ry="0.37673855" />
        <path
           d="M 92.007474,47.725315 H 91.312943 V 47.58131 q 0.07235,-0.06201 0.144694,-0.124023 0.07304,-0.06201 0.135737,-0.123334 0.132291,-0.128158 0.181212,-0.203261 0.04892,-0.07579 0.04892,-0.163297 0,-0.07993 -0.05305,-0.124713 -0.05237,-0.04548 -0.146761,-0.04548 -0.0627,0 -0.135737,0.02205 -0.07304,0.02205 -0.142627,0.06752 h -0.0069 v -0.144693 q 0.04892,-0.02412 0.130224,-0.0441 0.08199,-0.01998 0.158475,-0.01998 0.157785,0 0.247357,0.07648 0.08957,0.07579 0.08957,0.206016 0,0.05857 -0.01516,0.109554 -0.01447,0.0503 -0.04341,0.09577 -0.02687,0.04272 -0.06339,0.08406 -0.03583,0.04134 -0.08751,0.09164 -0.07372,0.07235 -0.152273,0.14056 -0.07855,0.06752 -0.146761,0.125401 h 0.551904 z m 0.895724,-0.513319 q 0,0.276297 -0.08682,0.405832 -0.08613,0.128847 -0.268028,0.128847 -0.184657,0 -0.270096,-0.130914 -0.08475,-0.130913 -0.08475,-0.402387 0,-0.27354 0.08613,-0.403765 0.08613,-0.130913 0.268718,-0.130913 0.184657,0 0.269406,0.13298 0.08544,0.132292 0.08544,0.40032 z m -0.181212,0.312815 q 0.02412,-0.05581 0.03238,-0.130914 0.009,-0.07579 0.009,-0.181901 0,-0.104731 -0.009,-0.181901 -0.0083,-0.07717 -0.03307,-0.130913 -0.02412,-0.05306 -0.06615,-0.07993 -0.04134,-0.02687 -0.106797,-0.02687 -0.06477,0 -0.107487,0.02687 -0.04203,0.02687 -0.06683,0.0813 -0.02343,0.05099 -0.03238,0.13298 -0.0083,0.08199 -0.0083,0.179834 0,0.107487 0.0076,0.179834 0.0076,0.07235 0.03238,0.129536 0.02274,0.05374 0.06408,0.08199 0.04203,0.02825 0.110932,0.02825 0.06477,0 0.107486,-0.02687 0.04272,-0.02687 0.06615,-0.0813 z"
           id="text19362"
           style="font-size:1.41111px;-inkscape-font-specification:sans-serif;text-align:center;text-anchor:middle;stroke:#000000;stroke-width:0"
           aria-label="20" />
        <rect
           style="fill:#000000;fill-opacity:1;stroke:#000000;stroke-width:0;stroke-dasharray:none"
           id="rect19363"
           width="2.1447308"
           height="0.31982836"
           x="87.827568"
           y="47.070255"
           ry="0" />
        <rect
           style="fill:#000000;fill-opacity:1;stroke:#000000;stroke-width:0;stroke-dasharray:none"
           id="rect19363-3"
           width="2.1447308"
           height="0.31982836"
           x="95.022133"
           y="47.050137"
           ry="0" />
        <rect
           style="fill:none;stroke:#000000;stroke-width:0.750686;stroke-opacity:0"
           id="rect19361"
           width="3.8056762"
           height="0.61045051"
           x="93.68103"
           y="46.630589" />
        <rect
           style="fill:none;stroke:#000000;stroke-width:0.252356;stroke-opacity:0"
           id="rect19360"
           width="4.4025736"
           height="1.0810847"
           x="86.525986"
           y="46.395275"
           ry="0" />
        <g
           id="g19364" />
      </g>
    </g>
  </g>
  <style
     type="text/css"
     id="style10601">
	.st0{fill:#F26D23;}
	.st1{fill:#383839;}
	.st2{fill:#414042;}
	.st3{fill:#434345;}
	.st4{fill:#464547;}
	.st5{fill:#3D3D3E;}
	.st6{fill:#282829;}
	.st7{fill:#292728;}
	.st8{fill:#710E11;}
	.st9{fill:#EB3627;}
	.st10{fill:#4D4D4F;}
	.st11{fill:#E55A20;}
	.st12{fill:#3B3B3C;}
	.st13{fill:#3A393A;}
	.st14{fill:#B32228;}
	.st15{fill:#E0E1E2;}
	.st16{fill:#8D9092;}
	.st17{fill:#EDEDEE;}
	.st18{fill:#D8D9DA;}
	.st19{fill:#E4E5E6;}
	.st20{fill:#8A8C8E;}
	.st21{fill:#333334;}
	.st22{fill:#545456;}
	.st23{fill:#649B40;}
	.st24{fill:#74AD44;}
	.st25{fill:#84C567;}
	.st26{fill:#477133;}
	.st27{fill:#E6CA3A;}
	.st28{fill:#FBD93C;}
	.st29{fill:#FDE855;}
	.st30{fill:#9B7D22;}
	.st31{fill:#EBEBEC;}
	.st32{fill:#2E2E2F;}
	.st33{fill:#4F4F51;}
	.st34{fill:#3D3C3D;}
	.st35{fill:#EF4653;}
	.st36{fill:#59575A;}
	.st37{fill:none;stroke:#000000;stroke-width:0.35;stroke-linecap:round;stroke-linejoin:round;stroke-miterlimit:10;}
	.st38{fill:#FFFFFF;}
	.st39{fill:#FF5100;}
	.st40{fill:none;stroke:#FFFFFF;stroke-width:0.4557;stroke-miterlimit:10;}
	.st41{fill:#414042;stroke:#000000;stroke-width:0.25;stroke-miterlimit:10;}
</style>
</svg>
