<?xml version="1.0" encoding="UTF-8"?>
<svg id="Layer_1" data-name="Layer 1" xmlns="http://www.w3.org/2000/svg" width="12.09cm" height="5.58cm" viewBox="0 0 342.76 158.13">
  <defs>
    <style>
      .cls-1 {
        fill: none;
      }

      .cls-2 {
        fill: #373637;
      }

      .cls-3 {
        fill: #bcbec0;
      }

      .cls-4, .cls-5 {
        fill: #fff;
      }

      .cls-6 {
        fill: #393839;
      }

      .cls-5 {
        font-family: MSReferenceSansSerif-Bold, 'MS Reference Sans Serif';
        font-size: 12px;
        font-weight: 700;
      }

      .cls-7 {
        fill: #797a7d;
      }

      .cls-8 {
        fill: #333132;
      }
    </style>
  </defs>
  <g id="Main_Layer" data-name="Main Layer">
    <g>
      <rect class="cls-8" width="337.32" height="158.13" rx="16.43" ry="16.43"/>
      <rect class="cls-6" x="1.63" y="1.71" width="334.05" height="154.71" rx="14.48" ry="14.48"/>
      <g>
        <rect class="cls-2" x="115.15" y="135.2" width="93.28" height="14.12" rx="4" ry="4"/>
        <path class="cls-8" d="M205.42,149.8h-87.25c-1.92,0-3.49-1.57-3.49-3.49v-8.1c0-1.92,1.57-3.49,3.49-3.49h87.25c1.92,0,3.49,1.57,3.49,3.49v8.1c0,1.92-1.57,3.49-3.49,3.49ZM118.17,135.68c-1.4,0-2.54,1.14-2.54,2.54v8.1c0,1.4,1.14,2.54,2.54,2.54h87.25c1.4,0,2.54-1.14,2.54-2.54v-8.1c0-1.4-1.14-2.54-2.54-2.54h-87.25Z"/>
      </g>
      <path class="cls-3" d="M161.8,137.64c2.55,0,4.63,2.08,4.63,4.63s-2.08,4.63-4.63,4.63-4.63-2.08-4.63-4.63,2.08-4.63,4.63-4.63M161.8,137.02c-2.9,0-5.26,2.35-5.26,5.26s2.35,5.26,5.26,5.26,5.26-2.35,5.26-5.26-2.35-5.26-5.26-5.26h0Z"/>
      <path class="cls-3" d="M180.23,137.64c2.55,0,4.63,2.08,4.63,4.63s-2.08,4.63-4.63,4.63-4.63-2.08-4.63-4.63,2.08-4.63,4.63-4.63M180.23,137.02c-2.9,0-5.26,2.35-5.26,5.26s2.35,5.26,5.26,5.26,5.26-2.35,5.26-5.26-2.35-5.26-5.26-5.26h0Z"/>
      <path class="cls-3" d="M142.84,137.64c2.55,0,4.63,2.08,4.63,4.63s-2.08,4.63-4.63,4.63-4.63-2.08-4.63-4.63,2.08-4.63,4.63-4.63M142.84,137.02c-2.9,0-5.26,2.35-5.26,5.26s2.35,5.26,5.26,5.26,5.26-2.35,5.26-5.26-2.35-5.26-5.26-5.26h0Z"/>
      <path class="cls-3" d="M123.89,137.64c2.55,0,4.63,2.08,4.63,4.63s-2.08,4.63-4.63,4.63-4.63-2.08-4.63-4.63,2.08-4.63,4.63-4.63M123.89,137.02c-2.9,0-5.26,2.35-5.26,5.26s2.35,5.26,5.26,5.26,5.26-2.35,5.26-5.26-2.35-5.26-5.26-5.26h0Z"/>
      <path class="cls-3" d="M198.66,137.64c2.55,0,4.63,2.08,4.63,4.63s-2.08,4.63-4.63,4.63-4.63-2.08-4.63-4.63,2.08-4.63,4.63-4.63M198.66,137.02c-2.9,0-5.26,2.35-5.26,5.26s2.35,5.26,5.26,5.26,5.26-2.35,5.26-5.26-2.35-5.26-5.26-5.26h0Z"/>
    </g>
  </g>
  <g>
    <path class="cls-4" d="M298.99,116.84h-2.32l-.61-1.76h-3.23l-.61,1.76h-2.27l3.22-8.72h2.59l3.22,8.72ZM295.52,113.48l-1.07-3.13-1.07,3.13h2.15Z"/>
    <path class="cls-4" d="M307.88,113.68c0,1.08-.33,1.9-.98,2.48s-1.62.86-2.9.86-2.24-.29-2.9-.86-.98-1.4-.98-2.47v-5.57h2.26v5.44c0,.61.13,1.06.38,1.35s.67.45,1.24.45.97-.14,1.23-.43.39-.74.39-1.37v-5.44h2.26v5.57Z"/>
    <path class="cls-4" d="M317.9,116.84h-2.6l-1.88-2.86-1.92,2.86h-2.49l3.09-4.4-3.03-4.33h2.6l1.81,2.72,1.87-2.72h2.49l-3.04,4.24,3.09,4.49Z"/>
    <path class="cls-4" d="M330.07,116.84h-6.85v-1.44c.52-.38,1.05-.78,1.57-1.21s.95-.79,1.26-1.1c.47-.46.81-.86,1.01-1.2s.3-.68.3-1.01c0-.4-.13-.71-.38-.92s-.62-.33-1.1-.33c-.36,0-.74.07-1.13.22s-.76.34-1.1.57h-.19v-1.94c.28-.12.69-.24,1.23-.36s1.08-.18,1.63-.18c1.09,0,1.93.23,2.5.69s.86,1.11.86,1.95c0,.55-.14,1.07-.41,1.57s-.7,1.01-1.26,1.54c-.36.33-.71.63-1.07.91s-.62.47-.77.58h3.92v1.67Z"/>
  </g>
  <g>
    <path class="cls-4" d="M311.78,82.99h-2.75l-2.37-3.2h-1.04v3.2h-2.24v-8.72h3.77c.52,0,.96.03,1.33.09s.72.19,1.04.38c.33.2.59.45.78.76s.29.7.29,1.17c0,.64-.15,1.17-.45,1.58s-.73.74-1.28,1.01l2.91,3.74ZM308.27,76.93c0-.22-.04-.41-.13-.56s-.24-.28-.46-.37c-.15-.06-.33-.1-.53-.11s-.44-.02-.71-.02h-.81v2.35h.69c.36,0,.66-.02.9-.05s.45-.12.61-.24c.16-.12.27-.25.34-.4s.11-.34.11-.59Z"/>
    <path class="cls-4" d="M317.49,82.99h-5.11v-1.55h1.43v-5.63h-1.43v-1.55h5.11v1.55h-1.43v5.63h1.43v1.55Z"/>
    <path class="cls-4" d="M327.8,78.63c0,1.39-.4,2.5-1.2,3.31s-1.9,1.23-3.3,1.23-2.5-.41-3.3-1.23-1.2-1.92-1.2-3.31.4-2.51,1.2-3.33,1.9-1.22,3.3-1.22,2.5.41,3.3,1.22,1.2,1.92,1.2,3.33ZM324.82,80.83c.22-.27.38-.58.49-.94s.16-.79.16-1.27c0-.52-.06-.97-.18-1.34s-.28-.66-.47-.89c-.2-.23-.43-.4-.69-.51s-.53-.16-.81-.16-.55.05-.81.15-.48.27-.69.5c-.2.22-.35.52-.48.91s-.18.83-.18,1.34.06.96.18,1.33.28.66.47.89.42.4.69.51.54.16.83.16.56-.06.83-.17.49-.28.69-.52Z"/>
  </g>
  <g>
    <path class="cls-4" d="M303.23,44.17h-5.82v-1.52h1.84v-4.61h-1.84v-1.42c.28,0,.55-.02.81-.05s.47-.09.64-.17c.2-.1.36-.22.46-.38s.16-.35.18-.59h1.94v7.22h1.8v1.52Z"/>
    <path class="cls-4" d="M312.31,44.17h-6.85v-1.44c.52-.38,1.05-.78,1.57-1.21s.95-.79,1.26-1.1c.47-.46.81-.86,1.01-1.2s.3-.68.3-1.01c0-.4-.13-.71-.38-.92s-.62-.33-1.1-.33c-.36,0-.74.07-1.13.22s-.76.34-1.1.57h-.19v-1.94c.28-.12.69-.24,1.23-.36s1.08-.18,1.63-.18c1.09,0,1.93.23,2.5.69s.86,1.11.86,1.95c0,.55-.14,1.07-.41,1.57s-.7,1.01-1.26,1.54c-.36.33-.71.63-1.07.91s-.62.47-.77.58h3.92v1.67Z"/>
    <path class="cls-4" d="M321.93,35.44l-3.18,8.72h-2.52l-3.18-8.72h2.36l2.11,6.12,2.11-6.12h2.3Z"/>
  </g>
  <text class="cls-5" transform="translate(325.07 34.46)"><tspan x="0" y="0">+</tspan></text>
  <text class="cls-5" transform="translate(327.78 52.71)"><tspan x="0" y="0">-</tspan></text>
  <rect class="cls-7" x="337.32" y="27.24" width="5.43" height="7.25"/>
  <rect class="cls-7" x="337.32" y="45.47" width="5.43" height="7.25"/>
  <g>
    <path class="cls-4" d="M116.37,70.34l-3.18,8.72h-2.52l-3.18-8.72h2.36l2.11,6.12,2.11-6.12h2.3Z"/>
    <path class="cls-4" d="M122.34,79.06h-5.11v-1.55h1.43v-5.63h-1.43v-1.55h5.11v1.55h-1.43v5.63h1.43v1.55Z"/>
    <path class="cls-4" d="M132.09,70.34l-3.18,8.72h-2.52l-3.18-8.72h2.36l2.11,6.12,2.11-6.12h2.3Z"/>
    <path class="cls-4" d="M138.06,79.06h-5.11v-1.55h1.43v-5.63h-1.43v-1.55h5.11v1.55h-1.43v5.63h1.43v1.55Z"/>
    <path class="cls-4" d="M148.14,74.71c0,.81-.19,1.54-.56,2.18s-.84,1.14-1.41,1.48c-.43.26-.89.44-1.4.54s-1.11.15-1.8.15h-3.08v-8.72h3.16c.71,0,1.32.06,1.84.18s.95.29,1.3.51c.6.37,1.08.86,1.42,1.49s.52,1.36.52,2.2ZM145.81,74.69c0-.57-.1-1.07-.31-1.47s-.54-.73-.99-.96c-.23-.11-.47-.19-.71-.23s-.6-.06-1.09-.06h-.57v5.46h.57c.54,0,.93-.02,1.18-.07s.49-.14.73-.27c.41-.23.71-.55.9-.94s.29-.88.29-1.46Z"/>
    <path class="cls-4" d="M161.78,79.06h-2.25v-3.84h-3.32v3.84h-2.25v-8.72h2.25v3.19h3.32v-3.19h2.25v8.72Z"/>
    <path class="cls-4" d="M172.49,74.71c0,1.39-.4,2.5-1.2,3.31s-1.9,1.23-3.3,1.23-2.5-.41-3.3-1.23-1.2-1.92-1.2-3.31.4-2.51,1.2-3.33,1.9-1.22,3.3-1.22,2.5.41,3.3,1.22,1.2,1.92,1.2,3.33ZM169.51,76.91c.22-.27.38-.58.49-.94s.16-.79.16-1.27c0-.52-.06-.97-.18-1.34s-.28-.66-.47-.89c-.2-.23-.43-.4-.69-.51s-.53-.16-.81-.16-.55.05-.81.15-.48.27-.69.5c-.2.22-.35.52-.48.91s-.18.83-.18,1.34.06.96.18,1.33.28.66.47.89.42.4.69.51.54.16.83.16.56-.06.83-.17.49-.28.69-.52Z"/>
    <path class="cls-4" d="M181.19,76.32c0,.86-.36,1.56-1.09,2.09s-1.72.81-2.97.81c-.72,0-1.35-.06-1.89-.19s-1.04-.29-1.51-.48v-2.09h.25c.46.37.99.66,1.56.86s1.13.3,1.66.3c.14,0,.32-.01.54-.04s.4-.06.54-.12c.17-.07.31-.16.42-.26s.17-.26.17-.47c0-.19-.08-.36-.24-.5s-.4-.25-.71-.32c-.33-.08-.67-.15-1.04-.22s-.71-.16-1.03-.26c-.73-.24-1.26-.56-1.58-.97s-.48-.92-.48-1.52c0-.81.36-1.48,1.09-1.99s1.67-.77,2.81-.77c.57,0,1.14.06,1.7.17s1.05.25,1.46.42v2.01h-.24c-.35-.28-.78-.52-1.29-.71s-1.03-.28-1.56-.28c-.19,0-.37.01-.56.04s-.36.07-.54.14c-.15.06-.28.15-.39.27s-.16.25-.16.41c0,.23.09.41.26.53s.51.24,1,.34c.32.07.63.13.92.19s.61.15.95.26c.67.22,1.16.52,1.48.89s.48.87.48,1.47Z"/>
    <path class="cls-4" d="M189.56,72.03h-2.72v7.04h-2.25v-7.04h-2.72v-1.69h7.7v1.69Z"/>
    <path class="cls-4" d="M195.63,79.06h-5.11v-1.55h1.43v-5.63h-1.43v-1.55h5.11v1.55h-1.43v5.63h1.43v1.55Z"/>
    <path class="cls-4" d="M205.39,79.06h-2.17l-3.7-5.99v5.99h-2.06v-8.72h2.69l3.18,5v-5h2.06v8.72Z"/>
    <path class="cls-4" d="M215.34,78.57c-.39.15-.91.3-1.55.45s-1.29.23-1.93.23c-1.48,0-2.65-.4-3.49-1.21s-1.26-1.92-1.26-3.34.42-2.45,1.27-3.28,2.03-1.25,3.54-1.25c.57,0,1.12.05,1.64.16s1.1.31,1.73.62v2.04h-.25c-.11-.08-.27-.2-.48-.35s-.41-.28-.61-.38c-.23-.12-.49-.23-.79-.32s-.62-.13-.96-.13c-.4,0-.76.06-1.08.18s-.62.3-.87.54c-.25.23-.44.53-.58.89s-.21.78-.21,1.25c0,.96.26,1.7.77,2.21s1.27.77,2.27.77c.09,0,.18,0,.28,0s.2,0,.28-.02v-1.71h-1.74v-1.65h4.03v4.31Z"/>
    <path class="cls-4" d="M131.46,86.43h-4.01v1.62h3.72v1.69h-3.72v3.73h-2.24v-8.72h6.25v1.69Z"/>
    <path class="cls-4" d="M141.42,93.46h-2.75l-2.37-3.2h-1.04v3.2h-2.24v-8.72h3.77c.52,0,.96.03,1.33.09s.72.19,1.04.38c.33.2.59.45.78.76s.29.7.29,1.17c0,.64-.15,1.17-.45,1.58s-.73.74-1.28,1.01l2.91,3.74ZM137.91,87.41c0-.22-.04-.41-.13-.56s-.24-.28-.46-.37c-.15-.06-.33-.1-.53-.11s-.44-.02-.71-.02h-.81v2.35h.69c.36,0,.66-.02.9-.05s.45-.12.61-.24c.16-.12.27-.25.34-.4s.11-.34.11-.59Z"/>
    <path class="cls-4" d="M146.35,93.63c-.65,0-1.25-.1-1.8-.29s-1.02-.48-1.42-.86-.7-.85-.92-1.42-.33-1.22-.33-1.96c0-.69.1-1.32.31-1.88s.51-1.04.9-1.45c.38-.39.85-.69,1.41-.9s1.17-.32,1.84-.32c.37,0,.7.02.99.06s.57.09.82.16c.26.07.5.16.71.25s.4.18.56.25v2.12h-.26c-.11-.09-.25-.2-.41-.33s-.35-.25-.57-.38c-.21-.12-.45-.23-.7-.31-.25-.09-.52-.13-.8-.13-.32,0-.62.05-.9.15s-.55.26-.79.49c-.23.22-.42.52-.56.88s-.21.81-.21,1.33.08,1,.23,1.37c.15.37.35.66.58.87.24.21.5.37.8.46.29.09.58.14.87.14s.54-.04.81-.12.51-.19.74-.33c.19-.11.37-.23.53-.36.16-.13.3-.24.4-.33h.23v2.09c-.22.1-.43.19-.63.28s-.41.16-.63.22c-.29.08-.55.14-.8.19s-.59.06-1.03.06Z"/>
    <path class="cls-4" d="M163.59,93.46h-2.75l-2.37-3.2h-1.04v3.2h-2.24v-8.72h3.77c.52,0,.96.03,1.33.09s.72.19,1.04.38c.33.2.59.45.78.76s.29.7.29,1.17c0,.64-.15,1.17-.45,1.58s-.73.74-1.28,1.01l2.91,3.74ZM160.08,87.41c0-.22-.04-.41-.13-.56s-.24-.28-.46-.37c-.15-.06-.33-.1-.53-.11s-.44-.02-.71-.02h-.81v2.35h.69c.36,0,.66-.02.9-.05s.45-.12.61-.24c.16-.12.27-.25.34-.4s.11-.34.11-.59Z"/>
    <path class="cls-4" d="M172.64,93.46h-2.32l-.61-1.76h-3.23l-.61,1.76h-2.27l3.22-8.72h2.59l3.22,8.72ZM169.17,90.1l-1.07-3.12-1.07,3.12h2.15Z"/>
    <path class="cls-4" d="M182.14,89.11c0,.81-.19,1.54-.56,2.18s-.84,1.14-1.41,1.48c-.43.26-.89.44-1.4.54s-1.11.15-1.8.15h-3.08v-8.72h3.16c.71,0,1.32.06,1.84.18s.95.29,1.3.51c.6.37,1.08.86,1.42,1.49s.52,1.36.52,2.2ZM179.81,89.09c0-.57-.1-1.07-.31-1.47s-.54-.73-.99-.96c-.23-.11-.47-.19-.71-.23s-.6-.06-1.09-.06h-.57v5.46h.57c.54,0,.93-.02,1.18-.07s.49-.14.73-.27c.41-.23.71-.55.9-.94s.29-.88.29-1.46Z"/>
    <path class="cls-4" d="M188.57,93.46h-5.11v-1.55h1.43v-5.63h-1.43v-1.55h5.11v1.55h-1.43v5.63h1.43v1.55Z"/>
    <path class="cls-4" d="M198.89,89.1c0,1.39-.4,2.5-1.2,3.31s-1.9,1.23-3.3,1.23-2.5-.41-3.3-1.23-1.2-1.92-1.2-3.31.4-2.51,1.2-3.33,1.9-1.22,3.3-1.22,2.5.41,3.3,1.22,1.2,1.92,1.2,3.33ZM195.91,91.31c.22-.27.38-.58.49-.94s.16-.79.16-1.27c0-.52-.06-.97-.18-1.34s-.28-.66-.47-.89c-.2-.23-.43-.4-.69-.51s-.53-.16-.81-.16-.55.05-.81.15-.48.27-.69.5c-.2.22-.35.52-.48.91s-.18.83-.18,1.34.06.96.18,1.33.28.66.47.89.42.4.69.51.54.16.83.16.56-.06.83-.17.49-.28.69-.52Z"/>
  </g>
  <rect class="cls-1" x="300.35" y="69.61" width="36.98" height="17.49"/>
  <rect class="cls-1" x="288.7" y="104" width="46.56" height="17.49"/>
  <g>
    <path class="cls-4" d="M16.13,104.3h-2.32l-.61-1.76h-3.23l-.61,1.76h-2.27l3.22-8.72h2.59l3.22,8.72ZM12.65,100.93l-1.07-3.13-1.07,3.13h2.15Z"/>
    <path class="cls-4" d="M25.02,101.14c0,1.08-.33,1.9-.98,2.48s-1.62.86-2.9.86-2.24-.29-2.9-.86-.98-1.4-.98-2.47v-5.57h2.26v5.44c0,.61.13,1.06.38,1.35s.67.45,1.24.45.97-.14,1.23-.43.39-.74.39-1.37v-5.44h2.26v5.57Z"/>
    <path class="cls-4" d="M35.03,104.3h-2.6l-1.88-2.86-1.92,2.86h-2.49l3.09-4.4-3.03-4.33h2.6l1.81,2.72,1.87-2.72h2.49l-3.04,4.24,3.09,4.49Z"/>
    <path class="cls-4" d="M46.66,104.3h-5.82v-1.52h1.84v-4.61h-1.84v-1.42c.28,0,.55-.02.81-.05s.47-.09.64-.17c.2-.1.36-.22.46-.38s.16-.35.18-.59h1.94v7.22h1.8v1.52Z"/>
  </g>
  <g>
    <path class="cls-4" d="M16.45,55.23c0,.81-.19,1.54-.56,2.18s-.84,1.14-1.41,1.48c-.43.26-.89.44-1.4.54s-1.11.15-1.8.15h-3.08v-8.72h3.16c.71,0,1.32.06,1.84.18s.95.29,1.3.51c.6.37,1.08.86,1.42,1.49s.52,1.36.52,2.2ZM14.13,55.21c0-.57-.1-1.07-.31-1.47s-.54-.73-.99-.96c-.23-.11-.47-.19-.71-.23s-.6-.06-1.09-.06h-.57v5.46h.57c.54,0,.93-.02,1.18-.07s.49-.14.73-.27c.41-.23.71-.55.9-.94s.29-.88.29-1.46Z"/>
    <path class="cls-4" d="M25.15,56.84c0,.86-.36,1.56-1.09,2.09s-1.72.81-2.97.81c-.72,0-1.35-.06-1.89-.19s-1.04-.29-1.51-.48v-2.09h.25c.46.37.99.66,1.56.86s1.13.3,1.66.3c.14,0,.32-.01.54-.04s.4-.06.54-.12c.17-.07.31-.16.42-.26s.17-.26.17-.47c0-.19-.08-.36-.24-.5s-.4-.25-.71-.32c-.33-.08-.67-.15-1.04-.22s-.71-.16-1.03-.26c-.73-.24-1.26-.56-1.58-.97s-.48-.92-.48-1.52c0-.81.36-1.48,1.09-1.99s1.67-.77,2.81-.77c.57,0,1.14.06,1.7.17s1.05.25,1.46.42v2.01h-.24c-.35-.28-.78-.52-1.29-.71s-1.03-.28-1.56-.28c-.19,0-.37.01-.56.04s-.36.07-.54.14c-.15.06-.28.15-.39.27s-.16.25-.16.41c0,.23.09.41.26.53s.51.24,1,.34c.32.07.63.13.92.19s.61.15.95.26c.67.22,1.16.52,1.48.89s.48.87.48,1.47Z"/>
  </g>
  <rect class="cls-1" y="92.67" width="48.56" height="17.49"/>
  <rect class="cls-1" y="46.47" width="28.63" height="17.49"/>
</svg>